<?xml version="1.0" encoding="UTF-8"?>
<!DOCTYPE svg PUBLIC "-//W3C//DTD SVG 1.1//EN" "http://www.w3.org/Graphics/SVG/1.1/DTD/svg11.dtd">
<!-- Creator: CorelDRAW 2019 (64-Bit) -->
<svg xmlns="http://www.w3.org/2000/svg" xml:space="preserve" width="300px" height="250px" version="1.1" style="shape-rendering:geometricPrecision; text-rendering:geometricPrecision; image-rendering:optimizeQuality; fill-rule:evenodd; clip-rule:evenodd"
viewBox="0 0 300 250"
 xmlns:xlink="http://www.w3.org/1999/xlink"
 xmlns:xodm="http://www.corel.com/coreldraw/odm/2003">
 <defs>
  <style type="text/css">
   <![CDATA[
    .fil0 {fill:#696B6D;fill-rule:nonzero}
    .fil1 {fill:#0066A4;fill-rule:nonzero}
    .fil2 {fill:#008DD0;fill-rule:nonzero}
   ]]>
  </style>
 </defs>
 <g id="Слой_x0020_1">
  <metadata id="CorelCorpID_0Corel-Layer"/>
  <g id="_3124331022224">
   <polygon class="fil0" points="75.419,154.873 226.269,154.873 226.269,154.017 75.419,154.017 "/>
   <path class="fil0" d="M149.961 131.857l0 -8.687 -5.224 0 0 17.136 4.846 0 5.658 -8.611 0 8.611 5.225 0 0 -17.136 -4.845 0 -5.66 8.687zm77.457 3.755l0 -2.748c-0.397,-3.015 -3.138,-4.693 -6.434,-4.693l-2.644 0 0 -5.001 -5.511 0 0 17.136 8.155 0c3.296,0 6.037,-1.679 6.434,-4.694zm-107.579 -5.515c0,0.626 -0.316,1.829 -1.911,1.829l-1.853 0 0 -4.535 2.078 0c0.556,0 1.686,0.454 1.686,1.79l0 0.916zm-1.123 -6.925l-8.154 -0.002 0 17.136 5.513 0 0 -4.203 2.641 0c3.567,0 6.487,-1.966 6.487,-5.467l0 -2.001c0,-3.498 -2.92,-5.463 -6.487,-5.463zm78.09 9.066c0,2.609 -0.687,2.99 -1.672,3.442 -0.43,0.197 -1.593,0.154 -1.593,0.154l0 4.472c0,0 0.69,0 2.161,0 4.641,0 6.355,-2.696 6.425,-8.745 0.015,-1.37 -0.015,-2.717 0,-3.919l3.092 0 0 12.664 5.512 0 0 -17.136 -13.925 0c0,0 0,5.631 0,9.068zm-93.651 2.305c0,1.135 -0.93,2.064 -2.064,2.064l-0.47 0c-1.136,0 -2.064,-0.929 -2.064,-2.064l0 -5.558c0,-1.133 0.928,-2.062 2.064,-2.062l0.47 0c1.134,0 2.064,0.929 2.064,2.062l0 5.558zm-0.949 -11.652l-2.701 0c-3.567,0 -6.486,2.541 -6.486,6.485l0 4.784c0,3.964 2.919,6.484 6.486,6.484l2.701 0c3.567,0 6.486,-2.546 6.486,-6.484l0 -4.784c0,-4.152 -2.919,-6.485 -6.486,-6.485zm76.418 0.279l-5.964 0 -2.91 6.48 -1.362 0 0 -6.48 -5.511 0 0 17.136 5.511 0 0 -6.089 1.355 0 2.973 6.089 6.329 0 -4.673 -8.645 4.252 -8.491zm6.834 10.633l6.213 0 0 -4.074 -6.213 0 0 -2.087 6.776 0 0 -4.472 -12.29 0 0 17.136 12.796 0 0 -4.472 -7.282 0 0 -2.031zm34.96 2.284l-2.078 0 0 -3.74 1.855 0c1.556,0 1.912,1.144 1.912,1.886 0,1.534 -1.267,1.854 -1.689,1.854zm-83.603 -6.575l-4.706 0 0 -6.342 -5.511 0 0 17.136 5.511 0 0 -6.089 4.706 0 0 6.089 5.512 0 0 -17.136 -5.512 0 0 6.342zm-51.178 0l-4.705 0 0 -6.342 -5.513 0 0 17.136 5.513 0 0 -6.089 4.705 0 0 6.089 5.512 0 0 -17.136 -5.512 0 0 6.342z"/>
   <polygon class="fil1" points="137.111,86.981 162.814,104.319 162.814,70.249 137.111,52.911 "/>
   <path class="fil2" d="M137.111 52.911c-14.196,0 -25.705,11.509 -25.705,25.705 0,14.196 11.509,25.704 25.705,25.704l0 -51.409z"/>
   <path class="fil2" d="M162.814 104.319c14.196,0 25.706,-11.508 25.706,-25.704 0,-14.197 -11.51,-25.705 -25.706,-25.705l0 51.409z"/>
   <polygon class="fil0" points="111.936,176.292 111.936,166.01 113.215,166.01 113.215,174.042 119.133,166.01 120.445,166.01 120.445,176.292 119.165,176.292 119.165,168.091 113.169,176.292 "/>
   <polygon class="fil0" points="130.143,176.292 130.143,171.575 124.131,171.575 124.131,176.292 122.851,176.292 122.851,166.01 124.131,166.01 124.131,170.435 130.143,170.435 130.143,166.01 131.421,166.01 131.421,176.292 "/>
   <path class="fil0" d="M133.302 171.159c0,-3.159 2.326,-5.318 5.287,-5.318 1.819,0 3.082,0.878 3.9,2.034l-1.079 0.602c-0.587,-0.863 -1.65,-1.495 -2.821,-1.495 -2.251,0 -3.962,1.726 -3.962,4.177 0,2.435 1.711,4.177 3.962,4.177 1.171,0 2.234,-0.617 2.821,-1.495l1.095 0.602c-0.863,1.172 -2.097,2.034 -3.916,2.034 -2.961,0 -5.287,-2.156 -5.287,-5.318z"/>
   <polygon class="fil0" points="146.838,176.292 146.838,167.151 143.585,167.151 143.585,166.01 151.384,166.01 151.384,167.151 148.117,167.151 148.117,176.292 "/>
   <polygon class="fil0" points="153.015,176.292 153.015,166.01 154.294,166.01 154.294,174.042 160.214,166.01 161.524,166.01 161.524,176.292 160.244,176.292 160.244,168.091 154.248,176.292 "/>
   <polygon class="fil0" points="166.415,176.292 166.415,167.151 163.161,167.151 163.161,166.01 170.963,166.01 170.963,167.151 167.694,167.151 167.694,176.292 "/>
   <path class="fil0" d="M172.207 175.661l0.54 -1.018c0.369,0.386 0.831,0.693 1.402,0.693 0.817,0 1.156,-0.401 1.727,-1.464l0.184 -0.354 -3.945 -7.508 1.463 0 3.223 6.367 3.222 -6.367 1.465 0 -4.488 8.464c-0.646,1.216 -1.325,2.003 -2.789,2.003 -0.863,0 -1.634,-0.355 -2.004,-0.816z"/>
   <polygon class="fil0" points="185.899,176.292 185.899,167.151 182.646,167.151 182.646,166.01 190.447,166.01 190.447,167.151 187.179,167.151 187.179,176.292 "/>
   <polygon class="fil0" points="96.799,196 96.799,185.716 103.534,185.716 103.534,186.859 98.078,186.859 98.078,196 "/>
   <polygon class="fil0" points="105.186,196 105.186,185.716 106.466,185.716 106.466,193.75 112.385,185.716 113.695,185.716 113.695,196 112.416,196 112.416,187.799 106.419,196 "/>
   <polygon class="fil0" points="123.388,196 123.388,186.859 117.376,186.859 117.376,196 116.096,196 116.096,185.716 124.666,185.716 124.666,196 "/>
   <path class="fil0" d="M133.094 188.815c0,-1.156 -0.831,-1.956 -2.05,-1.956l-2.697 0 0 3.915 2.697 0c1.219,0 2.05,-0.803 2.05,-1.959zm-6.027 7.185l0 -10.284 4.132 0c2.065,0 3.221,1.419 3.221,3.099 0,1.682 -1.187,3.098 -3.221,3.098l-2.852 0 0 4.087 -1.28 0z"/>
   <path class="fil0" d="M144.667 190.867c0,-2.405 -1.48,-4.18 -3.777,-4.18 -2.312,0 -3.777,1.775 -3.777,4.18 0,2.388 1.465,4.177 3.777,4.177 2.297,0 3.777,-1.789 3.777,-4.177zm-8.88 0c0,-3.039 2.051,-5.32 5.103,-5.32 3.037,0 5.103,2.281 5.103,5.32 0,3.037 -2.066,5.318 -5.103,5.318 -3.052,0 -5.103,-2.281 -5.103,-5.318z"/>
   <polygon class="fil0" points="155.179,196 155.179,191.281 149.167,191.281 149.167,196 147.888,196 147.888,185.716 149.167,185.716 149.167,190.14 155.179,190.14 155.179,185.716 156.457,185.716 156.457,196 "/>
   <polygon class="fil0" points="158.865,196 158.865,185.716 160.143,185.716 160.143,193.75 166.063,185.716 167.374,185.716 167.374,196 166.094,196 166.094,187.799 160.098,196 "/>
   <polygon class="fil0" points="175.993,196 172.093,191.374 171.06,192.547 171.06,196 169.781,196 169.781,185.716 171.06,185.716 171.06,191.036 175.607,185.716 177.21,185.716 172.925,190.604 177.581,196 "/>
   <polygon class="fil0" points="179.115,196 179.115,185.716 185.851,185.716 185.851,186.859 180.393,186.859 180.393,190.172 185.743,190.172 185.743,191.312 180.393,191.312 180.393,194.859 185.851,194.859 185.851,196 "/>
   <path class="fil0" d="M187.314 195.044c1.234,0 1.927,-0.68 2.358,-4.161l0.633 -5.167 6.289 0 0 10.284 -1.28 0 0 -9.141 -3.868 0 -0.509 4.114c-0.555,4.517 -1.788,5.212 -3.623,5.212l0 -1.141z"/>
   <path class="fil0" d="M200.281 190.943l0 3.916 2.697 0c1.217,0 2.05,-0.802 2.05,-1.958 0,-1.157 -0.833,-1.958 -2.05,-1.958l-2.697 0zm0 -5.227l0 4.085 2.851 0c2.035,0 3.222,1.42 3.222,3.1 0,1.679 -1.157,3.099 -3.222,3.099l-4.132 0 0 -10.284 1.281 0z"/>
  </g>
 </g>
</svg>
